<svg width="93" height="93" viewBox="0 0 93 93" fill="none" xmlns="http://www.w3.org/2000/svg">
<path d="M93 27.6946C93 23.7949 89.8355 20.6333 85.9358 20.6333C82.0334 20.6333 78.8689 23.7949 78.8689 27.6946C78.8689 29.6018 79.6267 31.3303 80.8557 32.5989C76.0508 42.5493 66.8665 46.0232 59.7485 42.8786C53.4082 40.0745 51.0695 32.0596 50.2776 25.8498C52.8631 24.4904 54.6257 21.7827 54.6257 18.6579C54.6255 14.1709 50.99 10.5352 46.5 10.5352C42.0129 10.5352 38.3745 14.1709 38.3745 18.6579C38.3745 21.7827 40.1369 24.4902 42.7226 25.8498C41.9308 32.0598 39.5922 40.0746 33.2517 42.8786C26.1335 46.0234 16.9494 42.5493 12.1445 32.5989C13.3735 31.3303 14.1313 29.6018 14.1313 27.6946C14.1313 23.7949 10.9667 20.6333 7.06709 20.6333C3.16454 20.6333 0 23.7949 0 27.6946C0 31.2876 2.68483 34.2478 6.15308 34.6963L14.2957 64.4995H78.7043L86.8469 34.6963C90.3179 34.2478 93 31.2876 93 27.6946Z" fill="#E9B530" fill-opacity="0.9"/>
<path d="M82.6494 77.2088C82.6494 80.1121 80.2966 82.4651 77.3904 82.4651H15.6098C12.7063 82.4649 10.3535 80.1121 10.3535 77.2088V76.7717C10.3535 73.8655 12.7063 71.5127 15.6098 71.5127H77.3904C80.2966 71.5127 82.6494 73.8655 82.6494 76.7717V77.2088Z" fill="#E9B530" fill-opacity="0.9"/>
</svg>
