<svg width="30" height="32" viewBox="0 0 30 32" fill="none" xmlns="http://www.w3.org/2000/svg">
<path fill-rule="evenodd" clip-rule="evenodd" d="M24.346 2.23985L27.2901 4.58421C27.5743 4.85179 27.7347 5.22553 27.7324 5.61597C27.7304 6.00639 27.5661 6.37837 27.2788 6.64281L25.0416 9.31993L17.4295 18.3985C17.2962 18.551 17.1189 18.6581 16.9219 18.7049L12.9739 19.5998C12.4559 19.6258 12.0049 19.2492 11.938 18.735V14.678C11.9513 14.4823 12.0301 14.2969 12.1617 14.1516L19.6328 5.70469L22.1971 2.64217C22.7044 1.97718 23.6323 1.80345 24.346 2.23985Z" stroke="black" stroke-width="3.6" stroke-linecap="round" stroke-linejoin="round"/>
<path d="M13.692 6.92303C14.4707 6.92303 15.102 6.29176 15.102 5.51303C15.102 4.73431 14.4707 4.10303 13.692 4.10303V6.92303ZM8.42806 5.51303V4.10303H8.42468L8.42806 5.51303ZM1.41002 12.5631H2.82002V12.5599L1.41002 12.5631ZM1.41002 23.1381L2.82002 23.1411V23.1381H1.41002ZM8.42806 30.1881L8.42468 31.5981H8.42806V30.1881ZM18.956 30.1881V31.5981H18.9594L18.956 30.1881ZM25.9741 23.1381H24.5641V23.1411L25.9741 23.1381ZM27.3841 16.0881C27.3841 15.3092 26.7528 14.6781 25.9741 14.6781C25.1954 14.6781 24.5641 15.3092 24.5641 16.0881H27.3841ZM20.9362 5.16675C20.639 4.44695 19.8146 4.10432 19.0948 4.40148C18.3749 4.69863 18.0324 5.52303 18.3296 6.24283L20.9362 5.16675ZM25.346 10.6893C26.1062 10.5212 26.5864 9.76854 26.4183 9.00817C26.2503 8.24781 25.4977 7.76765 24.7372 7.93575L25.346 10.6893ZM6.67402 23.4916C5.8953 23.4916 5.26402 24.1227 5.26402 24.9016C5.26402 25.6803 5.8953 26.3116 6.67402 26.3116V23.4916ZM20.712 26.3116C21.4907 26.3116 22.122 25.6803 22.122 24.9016C22.122 24.1227 21.4907 23.4916 20.712 23.4916V26.3116ZM13.692 4.10303H8.42806V6.92303H13.692V4.10303ZM8.42468 4.10303C3.76152 4.11423 -0.00996303 7.9029 1.9772e-05 12.5661L2.82002 12.5599C2.81336 9.45401 5.32546 6.93049 8.43144 6.92303L8.42468 4.10303ZM1.9772e-05 12.5631V23.1381H2.82002V12.5631H1.9772e-05ZM1.9772e-05 23.1349C-0.00996303 27.7981 3.76152 31.5868 8.42468 31.5981L8.43144 28.7781C5.32546 28.7706 2.81336 26.2471 2.82002 23.1411L1.9772e-05 23.1349ZM8.42806 31.5981H18.956V28.7781H8.42806V31.5981ZM18.9594 31.5981C23.6226 31.5868 27.394 27.7981 27.3841 23.1349L24.5641 23.1411C24.5707 26.2471 22.0586 28.7706 18.9527 28.7781L18.9594 31.5981ZM27.3841 23.1381V16.0881H24.5641V23.1381H27.3841ZM18.3296 6.24283C18.696 7.13043 19.4435 8.38849 20.5608 9.36056C21.7035 10.3549 23.3457 11.1315 25.346 10.6893L24.7372 7.93575C23.863 8.12899 23.1035 7.8349 22.4119 7.23313C21.6946 6.60907 21.1752 5.74555 20.9362 5.16675L18.3296 6.24283ZM6.67402 26.3116H20.712V23.4916H6.67402V26.3116Z" fill="black"/>
</svg>
