<svg width="50" height="46" viewBox="0 0 50 46" fill="none" xmlns="http://www.w3.org/2000/svg">
<path d="M2.54515 20.455L2.50015 20.5H7.50015V43C7.50015 43.663 7.76354 44.2989 8.23238 44.7678C8.70123 45.2366 9.33711 45.5 10.0002 45.5H40.0001C40.6632 45.5 41.2991 45.2366 41.7679 44.7678C42.2368 44.2989 42.5001 43.663 42.5001 43V20.5H47.5001L47.4552 20.455C47.8706 20.4707 48.2834 20.3811 48.6549 20.1945C49.0264 20.0078 49.3447 19.7302 49.5802 19.3875C49.7623 19.1142 49.8888 18.8077 49.9524 18.4855C50.0161 18.1633 50.0156 17.8318 49.9511 17.5098C49.8865 17.1878 49.7592 16.8816 49.5763 16.6088C49.3934 16.3361 49.1585 16.102 48.8852 15.92L26.3851 0.920008C25.9743 0.645911 25.4915 0.499634 24.9976 0.499634C24.5038 0.499634 24.021 0.645911 23.6102 0.920008L15.0002 6.66251V3.00001C15.0002 2.33697 14.7368 1.70108 14.2679 1.23224C13.7991 0.7634 13.1632 0.500008 12.5002 0.500008C11.8371 0.500008 11.2012 0.7634 10.7324 1.23224C10.2635 1.70108 10.0002 2.33697 10.0002 3.00001V10L1.11515 15.92C0.841769 16.102 0.606923 16.3361 0.42403 16.6088C0.241138 16.8816 0.113782 17.1878 0.0492406 17.5098C-0.0153009 17.8318 -0.0157635 18.1633 0.0478786 18.4855C0.111521 18.8077 0.23802 19.1142 0.420151 19.3875C0.655077 19.7307 0.97327 20.0087 1.34493 20.1954C1.71659 20.3821 2.12955 20.4714 2.54515 20.455ZM30.0001 40.5H20.0002V33C20.0002 32.337 20.2635 31.7011 20.7324 31.2322C21.2012 30.7634 21.8371 30.5 22.5001 30.5H27.5001C28.1632 30.5 28.7991 30.7634 29.2679 31.2322C29.7368 31.7011 30.0001 32.337 30.0001 33V40.5ZM20.0002 20.5H30.0001C30.6632 20.5 31.2991 20.7634 31.7679 21.2322C32.2368 21.7011 32.5001 22.337 32.5001 23C32.5001 23.663 32.2368 24.2989 31.7679 24.7678C31.2991 25.2366 30.6632 25.5 30.0001 25.5H20.0002C19.3371 25.5 18.7012 25.2366 18.2324 24.7678C17.7635 24.2989 17.5002 23.663 17.5002 23C17.5002 22.337 17.7635 21.7011 18.2324 21.2322C18.7012 20.7634 19.3371 20.5 20.0002 20.5Z" fill="#A2B1B5"/>
</svg>
