<svg width="50" height="46" viewBox="0 0 50 46" fill="none" xmlns="http://www.w3.org/2000/svg">
<path d="M6.12125 19L6.3165 18.8048L2.48566 18.9562C2.32374 18.9626 2.16284 18.9278 2.01803 18.855C1.87597 18.7837 1.75397 18.6781 1.66297 18.5479C1.59287 18.4405 1.54405 18.3207 1.5192 18.1949C1.49374 18.066 1.49393 17.9334 1.51974 17.8046C1.54556 17.6757 1.5965 17.5533 1.66966 17.4442C1.74282 17.3351 1.83675 17.2414 1.94611 17.1686L1.94663 17.1683L10.8316 11.2483L11.4999 10.803V10V3.00001C11.4999 2.73479 11.6053 2.48044 11.7928 2.2929C11.9803 2.10536 12.2347 2.00001 12.4999 2.00001C12.7651 2.00001 13.0195 2.10536 13.207 2.2929C13.3945 2.48044 13.4999 2.73479 13.4999 3.00001V6.66251V9.46596L15.8322 7.91042L24.4422 2.16792L24.4424 2.16778C24.6067 2.05814 24.7999 1.99963 24.9974 1.99963C25.195 1.99963 25.3881 2.05814 25.5524 2.16778L25.5529 2.16808L48.0529 17.1681L48.0537 17.1686C48.1631 17.2414 48.257 17.3351 48.3301 17.4442C48.4033 17.5533 48.4542 17.6757 48.4801 17.8046C48.5059 17.9334 48.5061 18.066 48.4806 18.1949C48.4558 18.3203 48.4072 18.4398 48.3375 18.5468C48.246 18.677 48.1236 18.7826 47.9813 18.8541C47.8358 18.9271 47.6743 18.9622 47.5116 18.9561L43.69 18.8115L43.8786 19H42.4999H40.9999V20.5V43C40.9999 43.2652 40.8945 43.5196 40.707 43.7071C40.5195 43.8946 40.2651 44 39.9999 44H9.99991C9.73469 44 9.48033 43.8946 9.2928 43.7071C9.10526 43.5196 8.99991 43.2652 8.99991 43V20.5V19H7.49991H6.12125ZM29.9999 42H31.4999V40.5V33C31.4999 31.9391 31.0785 30.9217 30.3283 30.1716C29.5782 29.4214 28.5608 29 27.4999 29H22.4999C21.439 29 20.4216 29.4214 19.6715 30.1716C18.9213 30.9217 18.4999 31.9391 18.4999 33V40.5V42H19.9999H29.9999ZM29.9999 19H19.9999C18.939 19 17.9216 19.4214 17.1715 20.1716C16.4213 20.9217 15.9999 21.9391 15.9999 23C15.9999 24.0609 16.4213 25.0783 17.1715 25.8284C17.9216 26.5786 18.939 27 19.9999 27H29.9999C31.0608 27 32.0782 26.5786 32.8283 25.8284C33.5785 25.0783 33.9999 24.0609 33.9999 23C33.9999 21.9391 33.5785 20.9217 32.8283 20.1716C32.0782 19.4214 31.0608 19 29.9999 19Z" fill="#A2B1B5" stroke="#629DD2" stroke-width="3"/>
</svg>
