<svg width="60" height="60" viewBox="0 0 60 60" fill="none" xmlns="http://www.w3.org/2000/svg">
<path d="M22.1777 45.15V59.9999L29.9203 56.4252L37.663 59.9999V44.6572L22.1777 45.15Z" fill="#4675CF"/>
<path d="M25.8862 45.2454V58.2876L29.9199 56.4253L33.9537 58.2876V45.4523L25.8862 45.2454Z" fill="#4E8FE3"/>
<path d="M25.8862 45.2454V58.2876L29.9199 56.4253L33.9537 58.2876V45.4523L25.8862 45.2454Z" fill="#4E8FE3"/>
<path opacity="0.22" d="M22.1777 51.4165C24.4893 52.3398 27.0113 52.8485 29.6525 52.8485C32.4993 52.8485 35.2076 52.2573 37.663 51.193V46.0893L22.1777 45.6919V51.4165Z" fill="#3F489B"/>
<path d="M32.5566 0.453955C35.9256 -0.739599 39.6765 0.479151 41.7005 3.42501C42.7253 4.91657 44.2314 6.01064 45.9665 6.5245C49.3938 7.53923 51.7117 10.7297 51.6178 14.3027C51.5702 16.1116 52.1455 17.8821 53.2472 19.3177C55.4235 22.1531 55.4235 26.0969 53.2472 28.9322C52.1455 30.3676 51.5702 32.1381 51.6178 33.9472C51.7117 37.5202 49.3938 40.7108 45.9665 41.7254C44.2313 42.2392 42.7253 43.3333 41.7005 44.8249C39.6763 47.7709 35.9258 48.9895 32.5566 47.796C30.851 47.1916 28.9893 47.1916 27.2835 47.796C23.9145 48.9895 20.1637 47.7708 18.1396 44.8249C17.1148 43.3333 15.6087 42.2393 13.8737 41.7254C10.4464 40.7107 8.12842 37.5202 8.2224 33.9472C8.26998 32.1383 7.69471 30.3678 6.59291 28.9322C4.41662 26.0968 4.41662 22.153 6.59291 19.3177C7.69482 17.8823 8.26998 16.1118 8.2224 14.3027C8.12842 10.7297 10.4464 7.53911 13.8737 6.5245C15.6088 6.01075 17.1148 4.91657 18.1396 3.42501C20.1638 0.478916 23.9144 -0.739717 27.2835 0.453955C28.9893 1.05817 30.851 1.05817 32.5566 0.453955Z" fill="#A87429"/>
<path d="M29.92 42.8452C40.2593 42.8452 48.6409 34.4636 48.6409 24.1244C48.6409 13.7852 40.2593 5.40356 29.92 5.40356C19.5808 5.40356 11.1992 13.7852 11.1992 24.1244C11.1992 34.4636 19.5808 42.8452 29.92 42.8452Z" fill="#E8A554"/>
<path d="M26.7326 23.2275V26.3033H28.9861V28.8052H25.2792V33.3366H28.9861H32.8143H33.5174V20.7255V16.1943H28.9861H25.0193V20.7255H28.9861V23.2275H26.7326Z" fill="#A87429"/>
<path d="M40.0039 35.1428C39.7649 35.1428 39.5258 35.0517 39.3434 34.8692C38.9786 34.5044 38.9786 33.9131 39.3434 33.5484C44.5398 28.3522 44.5398 19.8973 39.3434 14.7011C38.9786 14.3363 38.9786 13.745 39.3434 13.3803C39.7083 13.0155 40.2996 13.0155 40.6644 13.3803C43.5343 16.2502 45.1148 20.0661 45.1148 24.1247C45.1148 28.1834 43.5344 31.9993 40.6644 34.8692C40.482 35.0517 40.2428 35.1428 40.0039 35.1428Z" fill="#A87429"/>
<path d="M19.8358 35.1428C19.5968 35.1428 19.3576 35.0517 19.1753 34.8692C16.3054 31.9993 14.7249 28.1834 14.7249 24.1247C14.7249 20.0661 16.3052 16.2502 19.1753 13.3803C19.5402 13.0155 20.1314 13.0155 20.4962 13.3803C20.861 13.7451 20.861 14.3364 20.4962 14.7011C15.2999 19.8973 15.2999 28.3522 20.4962 33.5484C20.861 33.9132 20.861 34.5045 20.4962 34.8692C20.3139 35.0517 20.0748 35.1428 19.8358 35.1428Z" fill="#A87429"/>
<path opacity="0.14" d="M53.4069 19.3178C52.3051 17.8823 51.7298 16.1119 51.7774 14.3027C51.8714 10.7297 49.5534 7.53913 46.1262 6.52452C44.5412 6.0553 43.1489 5.10058 42.1384 3.80249C44.5566 7.6071 45.958 12.1212 45.958 16.963C45.958 30.5319 34.9582 41.5315 21.3895 41.5315C17.1804 41.5315 13.2189 40.4722 9.75586 38.6068C10.7551 40.0697 12.2422 41.1949 14.0334 41.7253C15.7686 42.2391 17.2746 43.3332 18.2994 44.8248C20.3236 47.7708 24.0742 48.9894 27.4433 47.7959C29.149 47.1916 31.0106 47.1916 32.7164 47.7959C36.0854 48.9894 39.8363 47.7707 41.8603 44.8248C42.8851 43.3332 44.3912 42.2392 46.1263 41.7253C49.5536 40.7106 51.8715 37.5201 51.7775 33.9471C51.73 32.1382 52.3052 30.3677 53.407 28.9321C55.5832 26.0967 55.5832 22.1531 53.4069 19.3178Z" fill="#56361D"/>
</svg>
