<svg width="60" height="60" viewBox="0 0 60 60" fill="none" xmlns="http://www.w3.org/2000/svg">
<g clip-path="url(#clip0_1487_23)">
<path d="M22.2573 45.1501V60L30 56.4253L37.7426 60V45.5476L22.2573 45.1501Z" fill="#4675CF"/>
<path d="M25.9663 45.2454V58.2876L30 56.4253L34.0335 58.2876V45.4523L25.9663 45.2454Z" fill="#4E8FE3"/>
<path opacity="0.22" d="M22.2573 50.875C24.5688 51.7983 27.0908 52.307 29.7321 52.307C32.5788 52.307 35.2872 51.7158 37.7426 50.6515V45.5478L22.2573 45.1504V50.875Z" fill="#3F489B"/>
<path d="M32.6365 0.453955C36.0055 -0.739599 39.7563 0.479151 41.7804 3.42501C42.8052 4.91657 44.3113 6.01064 46.0463 6.5245C49.4736 7.53923 51.7916 10.7297 51.6976 14.3027C51.65 16.1116 52.2253 17.8821 53.3271 19.3177C55.5034 22.1531 55.5034 26.0969 53.3271 28.9322C52.2252 30.3676 51.65 32.1381 51.6976 33.9472C51.7916 37.5202 49.4736 40.7108 46.0463 41.7254C44.3111 42.2392 42.8052 43.3333 41.7804 44.8249C39.7562 47.7709 36.0056 48.9895 32.6365 47.796C30.9308 47.1916 29.0692 47.1916 27.3634 47.796C23.9943 48.9895 20.2435 47.7708 18.2195 44.8249C17.1947 43.3333 15.6886 42.2393 13.9535 41.7254C10.5262 40.7107 8.20825 37.5202 8.30224 33.9472C8.34981 32.1383 7.77454 30.3678 6.67274 28.9322C4.49646 26.0968 4.49646 22.153 6.67274 19.3177C7.77466 17.8823 8.34981 16.1118 8.30224 14.3027C8.20825 10.7297 10.5262 7.53911 13.9535 6.5245C15.6887 6.01075 17.1947 4.91657 18.2195 3.42501C20.2436 0.478916 23.9942 -0.739717 27.3634 0.453955C29.0692 1.05817 30.9308 1.05817 32.6365 0.453955Z" fill="#ACAAB1"/>
<path d="M29.9996 42.8452C40.3389 42.8452 48.7204 34.4636 48.7204 24.1244C48.7204 13.7852 40.3389 5.40356 29.9996 5.40356C19.6604 5.40356 11.2788 13.7852 11.2788 24.1244C11.2788 34.4636 19.6604 42.8452 29.9996 42.8452Z" fill="#D7D5D9"/>
<path d="M34.8626 18.7667C34.8626 17.3461 33.7109 16.1946 32.2905 16.1946H30.3314H24.6016V20.7258H29.122C29.6966 20.7258 30.0861 21.3111 29.8639 21.8411L25.0456 33.3366H28.8779H29.5769H32.2198H34.8626V28.8055H32.2198H31.4761L34.492 21.6103C34.7366 21.0263 34.8627 20.3996 34.8627 19.7666V18.7667H34.8626Z" fill="#F1F1F1"/>
<path d="M39.8159 35.1428C39.577 35.1428 39.3378 35.0517 39.1554 34.8692C38.7906 34.5044 38.7906 33.9131 39.1554 33.5484C44.3518 28.3522 44.3518 19.8973 39.1554 14.7011C38.7906 14.3363 38.7906 13.745 39.1554 13.3803C39.5204 13.0155 40.1116 13.0155 40.4764 13.3803C43.3463 16.2502 44.9268 20.0661 44.9268 24.1247C44.9268 28.1834 43.3464 31.9993 40.4764 34.8692C40.294 35.0517 40.055 35.1428 39.8159 35.1428Z" fill="#ACAAB1"/>
<path d="M19.648 35.1428C19.4091 35.1428 19.1699 35.0517 18.9877 34.8692C16.1177 31.9993 14.5371 28.1834 14.5371 24.1247C14.5371 20.0661 16.1176 16.2502 18.9877 13.3803C19.3525 13.0155 19.9438 13.0155 20.3085 13.3803C20.6733 13.7451 20.6733 14.3364 20.3085 14.7011C15.1123 19.8973 15.1123 28.3522 20.3085 33.5484C20.6733 33.9132 20.6733 34.5045 20.3085 34.8692C20.1261 35.0517 19.887 35.1428 19.648 35.1428Z" fill="#ACAAB1"/>
<path opacity="0.14" d="M53.3 19.3178C52.1982 17.8823 51.6229 16.1119 51.6705 14.3027C51.7645 10.7297 49.4465 7.53913 46.0192 6.52452C44.4343 6.0553 43.042 5.10058 42.0315 3.80249C44.4496 7.6071 45.8511 12.1212 45.8511 16.963C45.8511 30.5319 34.8513 41.5315 21.2826 41.5315C17.0735 41.5315 13.1119 40.4722 9.64893 38.6068C10.6482 40.0697 12.1353 41.1949 13.9265 41.7253C15.6617 42.2391 17.1677 43.3332 18.1925 44.8248C20.2167 47.7708 23.9672 48.9894 27.3364 47.7958C29.0421 47.1916 30.9037 47.1916 32.6095 47.7958C35.9785 48.9894 39.7293 47.7707 41.7534 44.8248C42.7782 43.3332 44.2843 42.2392 46.0194 41.7253C49.4466 40.7106 51.7646 37.5201 51.6706 33.9471C51.623 32.1382 52.1983 30.3677 53.3001 28.9321C55.4762 26.0967 55.4762 22.1531 53.3 19.3178Z" fill="#56361D"/>
</g>
<defs>
<clipPath id="clip0_1487_23">
<rect width="60" height="60" fill="white"/>
</clipPath>
</defs>
</svg>
