<svg width="60" height="60" viewBox="0 0 60 60" fill="none" xmlns="http://www.w3.org/2000/svg">
<g clip-path="url(#clip0_1662_19)">
<path d="M21.8209 47.8214L10.6001 59.0421L7.74703 51.2951L0 48.4421L9.63481 38.8073L14.4101 34.032L24.7902 44.412L21.8209 47.8214Z" fill="#4675CF"/>
<path d="M47.518 35.9602L60 48.4421L52.2528 51.2951L49.3998 59.0422L35.0361 44.6785L47.518 35.9602Z" fill="#4675CF"/>
<path d="M17.1758 36.8059L4.04639 49.9354L7.73873 51.2951L9.18564 55.2239L22.3897 42.0198L17.1758 36.8059Z" fill="#4E8FE3"/>
<path d="M55.9571 49.9492L44.2708 38.2629L38.1313 42.5512L50.8417 55.2617L52.3025 51.2951L55.9571 49.9492Z" fill="#4E8FE3"/>
<path opacity="0.23" d="M47.5179 35.9619L35.0359 44.6801L40.3407 49.9849C45.1052 48.0124 49.2006 44.7525 52.1945 40.6385L47.5179 35.9619Z" fill="#3F489B"/>
<path opacity="0.23" d="M9.63477 38.8091L7.4873 40.9565C10.5423 45.0322 14.6915 48.24 19.4993 50.1447L21.8207 47.8233L24.79 44.4138L14.4099 34.0337L9.63477 38.8091Z" fill="#3F489B"/>
<path d="M32.277 1.39735C35.5385 0.241997 39.1695 1.42172 41.1288 4.2736C42.1208 5.71747 43.5789 6.77672 45.2586 7.27407C48.5765 8.25633 50.8205 11.3449 50.7294 14.8039C50.6834 16.5551 51.2402 18.2691 52.3069 19.6588C54.4137 22.4036 54.4137 26.2215 52.3069 28.9663C51.2402 30.3559 50.6834 32.0699 50.7294 33.8211C50.8205 37.2802 48.5765 40.3688 45.2586 41.351C43.5789 41.8484 42.1209 42.9076 41.1288 44.3515C39.1693 47.2034 35.5384 48.3831 32.277 47.2277C30.6257 46.6427 28.8236 46.6427 27.1723 47.2277C23.9107 48.3831 20.2798 47.2034 18.3204 44.3515C17.3283 42.9076 15.8704 41.8484 14.1906 41.351C10.8728 40.3688 8.62876 37.2802 8.71981 33.8211C8.76587 32.07 8.20899 30.356 7.14235 28.9663C5.03556 26.2215 5.03556 22.4036 7.14235 19.6588C8.20899 18.2692 8.76587 16.5552 8.71981 14.8039C8.62876 11.3449 10.8728 8.25633 14.1906 7.27407C15.8704 6.77672 17.3283 5.71747 18.3204 4.2736C20.2799 1.42172 23.9108 0.241997 27.1723 1.39735C28.8236 1.98235 30.6257 1.98235 32.277 1.39735Z" fill="#CCA400"/>
<path d="M29.7242 42.4355C39.7334 42.4355 47.8474 34.3215 47.8474 24.3124C47.8474 14.3032 39.7334 6.18921 29.7242 6.18921C19.7151 6.18921 11.6011 14.3032 11.6011 24.3124C11.6011 34.3215 19.7151 42.4355 29.7242 42.4355Z" fill="#EEBF00"/>
<path d="M27.7816 16.6353H24.9277V21.0218H27.7816V33.2302H32.1682V21.0218V16.6353H27.7816Z" fill="#FFEB99"/>
<path d="M22.0727 27.4239C24.1448 29.4961 23.7419 33.2582 23.7419 33.2582C23.7419 33.2582 19.9796 33.661 17.9076 31.589C15.8355 29.5169 16.2384 25.7547 16.2384 25.7547C16.2384 25.7547 20.0007 25.3518 22.0727 27.4239Z" fill="#CCA400"/>
<path d="M41.6193 31.589C39.5472 33.6611 35.785 33.2582 35.785 33.2582C35.785 33.2582 35.3822 29.4959 37.4542 27.4239C39.5262 25.3519 43.2885 25.7547 43.2885 25.7547C43.2885 25.7547 43.6914 29.517 41.6193 31.589Z" fill="#CCA400"/>
<path opacity="0.14" d="M52.3153 19.6587C51.2487 18.2691 50.6918 16.5551 50.7379 14.8039C50.8289 11.3449 48.5849 8.25626 45.2671 7.27399C43.7328 6.81978 42.3849 5.89552 41.4067 4.63892C43.7476 8.322 45.1043 12.692 45.1043 17.3792C45.1043 30.5149 34.4557 41.1632 21.3203 41.1632C17.2456 41.1632 13.4105 40.1378 10.0581 38.332C11.0255 39.7482 12.4651 40.8374 14.199 41.3509C15.8788 41.8483 17.3367 42.9076 18.3288 44.3514C20.2883 47.2033 23.9193 48.383 27.1807 47.2277C28.832 46.6428 30.6341 46.6428 32.2854 47.2277C35.547 48.383 39.1779 47.2033 41.1373 44.3514C42.1293 42.9076 43.5873 41.8483 45.2671 41.3509C48.5849 40.3687 50.8289 37.28 50.7379 33.8211C50.6918 32.0699 51.2487 30.3559 52.3153 28.9662C54.422 26.2212 54.422 22.4035 52.3153 19.6587Z" fill="#56361D"/>
</g>
<defs>
<clipPath id="clip0_1662_19">
<rect width="60" height="60" fill="white"/>
</clipPath>
</defs>
</svg>
