<svg width="60" height="60" viewBox="0 0 60 60" fill="none" xmlns="http://www.w3.org/2000/svg">
<path d="M29.8565 3.125C24.0856 3.12498 19.563 3.12495 16.0343 3.59938C12.4224 4.08498 9.57238 5.09833 7.33535 7.33535C5.09833 9.57238 4.08498 12.4224 3.59938 16.0343C3.12495 19.563 3.12498 24.0856 3.125 29.8565V30.1435C3.12498 35.9145 3.12495 40.437 3.59938 43.9657C4.08498 47.5775 5.09833 50.4278 7.33535 52.6648C9.57238 54.9018 12.4224 55.915 16.0343 56.4008C19.563 56.875 24.0856 56.875 29.8565 56.875H30.1435C35.9145 56.875 40.437 56.875 43.9657 56.4008C47.5775 55.915 50.4278 54.9018 52.6648 52.6648C54.9018 50.4278 55.915 47.5775 56.4008 43.9657C56.875 40.437 56.875 35.9145 56.875 30.1435V26.25C56.875 25.2145 56.0355 24.375 55 24.375C53.9645 24.375 53.125 25.2145 53.125 26.25V30C53.125 35.9455 53.121 40.216 52.684 43.466C52.2545 46.662 51.4372 48.5887 50.013 50.013C48.5887 51.4372 46.662 52.2545 43.466 52.684C40.216 53.121 35.9455 53.125 30 53.125C24.0544 53.125 19.7839 53.121 16.534 52.684C13.3379 52.2545 11.4111 51.4372 9.987 50.013C8.56285 48.5887 7.74563 46.662 7.31593 43.466C6.87898 40.216 6.875 35.9455 6.875 30C6.875 24.0544 6.87898 19.7839 7.31593 16.534C7.74563 13.3379 8.56285 11.4111 9.987 9.987C11.4111 8.56285 13.3379 7.74563 16.534 7.31593C19.7839 6.87898 24.0544 6.875 30 6.875H33.75C34.7855 6.875 35.625 6.03553 35.625 5C35.625 3.96448 34.7855 3.125 33.75 3.125H29.8565Z" fill="#629DD2"/>
<path d="M15.625 35C15.625 33.9645 16.4645 33.125 17.5 33.125H40C41.0355 33.125 41.875 33.9645 41.875 35C41.875 36.0355 41.0355 36.875 40 36.875H17.5C16.4645 36.875 15.625 36.0355 15.625 35Z" fill="#629DD2"/>
<path d="M17.5 41.875C16.4645 41.875 15.625 42.7145 15.625 43.75C15.625 44.7855 16.4645 45.625 17.5 45.625H32.5C33.5355 45.625 34.375 44.7855 34.375 43.75C34.375 42.7145 33.5355 41.875 32.5 41.875H17.5Z" fill="#629DD2"/>
<circle cx="47.5" cy="12.5" r="9.5" fill="#E90707"/>
</svg>
