<svg width="42" height="42" viewBox="0 0 42 42" fill="none" xmlns="http://www.w3.org/2000/svg">
<path d="M12.6 23.7C16.6622 23.7 19.95 20.4122 19.95 16.35C19.95 12.2878 16.6622 9 12.6 9C8.53781 9 5.25 12.2878 5.25 16.35C5.25 20.4122 8.53781 23.7 12.6 23.7ZM17.64 25.8H17.0953C15.7303 26.4562 14.2144 26.85 12.6 26.85C10.9856 26.85 9.47625 26.4562 8.10469 25.8H7.56C3.38625 25.8 0 29.1862 0 33.36V35.25C0 36.9891 1.41094 38.4 3.15 38.4H22.05C23.7891 38.4 25.2 36.9891 25.2 35.25V33.36C25.2 29.1862 21.8137 25.8 17.64 25.8ZM31.5 23.7C34.9781 23.7 37.8 20.8781 37.8 17.4C37.8 13.9219 34.9781 11.1 31.5 11.1C28.0219 11.1 25.2 13.9219 25.2 17.4C25.2 20.8781 28.0219 23.7 31.5 23.7ZM34.65 25.8H34.4006C33.4884 26.115 32.5237 26.325 31.5 26.325C30.4762 26.325 29.5116 26.115 28.5994 25.8H28.35C27.0112 25.8 25.7775 26.1872 24.6947 26.8106C26.2959 28.5366 27.3 30.8269 27.3 33.36V35.88C27.3 36.0244 27.2672 36.1622 27.2606 36.3H38.85C40.5891 36.3 42 34.8891 42 33.15C42 29.0878 38.7122 25.8 34.65 25.8Z" fill="#5B93C5"/>
<circle cx="34.5" cy="11.5" r="7.5" fill="#E90707"/>
</svg>
