<svg width="55" height="55" viewBox="0 0 55 55" fill="none" xmlns="http://www.w3.org/2000/svg">
<path d="M43.5417 25.2085H11.4583C8.92703 25.2085 6.875 27.2605 6.875 29.7918V45.8335C6.875 48.3648 8.92703 50.4168 11.4583 50.4168H43.5417C46.073 50.4168 48.125 48.3648 48.125 45.8335V29.7918C48.125 27.2605 46.073 25.2085 43.5417 25.2085Z" stroke="#A2B1B5" stroke-width="2" stroke-linecap="round" stroke-linejoin="round"/>
<path d="M16.0417 25.2085V16.0418C16.0417 13.0029 17.249 10.0884 19.3978 7.93956C21.5467 5.79071 24.4611 4.5835 27.5001 4.5835C30.539 4.5835 33.4535 5.79071 35.6023 7.93956C37.7512 10.0884 38.9584 13.0029 38.9584 16.0418V25.2085" stroke="#A2B1B5" stroke-width="2" stroke-linecap="round" stroke-linejoin="round"/>
</svg>
