<svg width="68" height="68" viewBox="0 0 68 68" fill="none" xmlns="http://www.w3.org/2000/svg">
<path d="M38.6453 8.37877C38.6437 10.3137 37.9135 12.177 36.6001 13.5978C35.2867 15.0186 33.4864 15.8927 31.5576 16.046C29.6288 16.1993 27.713 15.6206 26.1916 14.4251C24.6702 13.2296 23.6548 11.505 23.3477 9.59468C23.0405 7.68433 23.464 5.72836 24.5339 4.11618C25.6038 2.50401 27.2416 1.35387 29.1212 0.894771C31.0008 0.435667 32.9844 0.701267 34.677 1.63869C36.3697 2.57612 37.6472 4.1166 38.2553 5.95346V5.9559L38.2991 6.08996C38.5266 6.81633 38.642 7.57927 38.6453 8.37877Z" fill="#0946A6"/>
<path d="M41.0826 8.37875C41.0835 10.591 40.3606 12.7428 39.0241 14.5057C37.6877 16.2687 35.8112 17.5459 33.6809 18.1426C31.5507 18.7392 29.2837 18.6225 27.226 17.8102C25.1683 16.9979 23.4328 15.5346 22.2845 13.6437C18.9427 17.2439 17.2292 20.7003 16.5979 23.9178C15.4157 29.9384 18.1579 34.5575 21.0682 37.8774C19.7992 37.9086 18.5586 38.259 17.4607 38.8962C14.9306 35.6787 12.8441 31.418 13.902 26.0336C14.9195 21.7198 17.2129 17.8125 20.4832 14.8211C21.0032 14.3043 21.546 13.8119 22.1115 13.3439C21.2284 11.7775 20.7798 10.0036 20.8123 8.20568C19.4636 9.15143 18.2082 10.2077 17.0464 11.3744C13.087 15.049 10.3229 19.8283 9.1123 25.0927C7.67417 32.4149 10.565 38.0724 13.7557 42.0699L2.65292 52.2269L2.61392 52.2659C1.89947 52.9671 1.36199 53.828 1.04582 54.7778C0.729658 55.7276 0.643874 56.7389 0.79555 57.7284C1.04661 59.537 1.96311 61.2067 3.08436 62.5522L3.11117 62.5839L4.85642 64.5363L4.9198 64.5972C6.3433 65.9769 8.21042 67.0469 10.1434 67.4491C12.0909 67.8513 14.4163 67.6124 16.164 65.8647L16.2225 65.8062L26.1334 54.3987C29.6068 57.1117 34.0796 59.4858 39.5079 59.4858C41.146 59.4817 42.7763 59.2604 44.3561 58.8277C48.2181 57.6973 51.7728 55.7045 54.752 52.9996C55.7888 52.2684 56.78 51.4811 57.7258 50.6377C60.8788 47.8538 63.3869 44.416 65.0754 40.5637C66.7639 36.7114 67.5922 32.5373 67.5026 28.3321C67.4281 24.2924 66.4736 20.3175 64.7055 16.6844C62.9374 13.0514 60.3983 9.84766 57.2651 7.29649C52.2606 3.25303 46.0222 1.04566 39.5884 1.04187H39.5981C39.057 1.04187 38.5183 1.0565 37.9821 1.08575C38.9327 2.00225 40.11 3.74993 40.656 5.47324C41.0801 6.80656 41.0826 8.04237 41.0826 8.37875ZM51.7564 49.1532C49.2881 51.4555 46.3219 53.1571 43.0886 54.1257C41.9259 54.4451 40.7242 54.6108 39.5201 54.6132C35.5226 54.6132 32.0541 52.7924 29.2387 50.6157C29.8603 49.5189 30.1869 48.2977 30.2137 47.0692C34.0138 50.4573 39.347 53.7626 45.782 52.01C47.6931 51.4884 49.6918 50.5719 51.7564 49.1532ZM19.3864 43.5177C20.4101 42.494 22.0847 42.494 23.106 43.5177L24.5807 44.9924C25.6044 46.0503 25.5874 47.7419 24.5807 48.7584L24.5271 48.8144L14.4187 60.4486C13.8612 58.9653 12.9955 57.6169 11.8789 56.4926C10.7802 55.3767 9.45541 54.509 7.99349 53.9478L19.3498 43.5543L19.3864 43.5177Z" fill="#0946A6"/>
</svg>
