<svg width="49" height="37" viewBox="0 0 49 37" fill="none" xmlns="http://www.w3.org/2000/svg">
<path d="M15.1758 28.8237L17.3086 24.942C15.7227 23.7857 14.4831 22.3266 13.5898 20.5647C12.6966 18.8028 12.25 16.94 12.25 14.9762C12.25 12.7555 12.806 10.6907 13.918 8.78199C9.74349 10.9293 6.27083 14.1687 3.5 18.5C6.54427 23.2351 10.4362 26.6763 15.1758 28.8237ZM25.8125 7.92857C25.8125 7.56151 25.6849 7.2495 25.4297 6.99256C25.1745 6.73561 24.8646 6.60714 24.5 6.60714C22.2214 6.60714 20.2663 7.42845 18.6348 9.07106C17.0033 10.7137 16.1875 12.682 16.1875 14.9762C16.1875 15.3433 16.3151 15.6553 16.5703 15.9122C16.8255 16.1691 17.1354 16.2976 17.5 16.2976C17.8646 16.2976 18.1745 16.1691 18.4297 15.9122C18.6849 15.6553 18.8125 15.3433 18.8125 14.9762C18.8125 13.3978 19.3685 12.0489 20.4805 10.9293C21.5924 9.80977 22.9323 9.25 24.5 9.25C24.8646 9.25 25.1745 9.12153 25.4297 8.86458C25.6849 8.60764 25.8125 8.29563 25.8125 7.92857ZM35.7383 2.67039C35.7383 2.79886 35.7292 2.88145 35.7109 2.91815C33.7969 6.36855 30.9258 11.5625 27.0977 18.5C23.2695 25.4375 20.3893 30.6406 18.457 34.1094L17.1172 36.5595C16.9349 36.8532 16.6797 37 16.3516 37C16.1328 37 14.9115 36.3576 12.6875 35.0729C12.3958 34.8894 12.25 34.6324 12.25 34.3021C12.25 34.0818 12.651 33.2835 13.4531 31.907C10.8464 30.714 8.44466 29.1265 6.24805 27.1443C4.05143 25.1622 2.15104 22.9139 0.546875 20.3996C0.182292 19.8306 0 19.1974 0 18.5C0 17.8026 0.182292 17.1694 0.546875 16.6004C3.33594 12.2874 6.79948 8.88294 10.9375 6.3869C15.0755 3.89087 19.5964 2.64286 24.5 2.64286C26.1224 2.64286 27.763 2.79886 29.4219 3.11086L30.8984 0.440476C31.0807 0.146825 31.3359 0 31.6641 0C31.7552 0 31.9193 0.0550595 32.1562 0.165179C32.3932 0.275298 32.6758 0.417535 33.0039 0.59189C33.332 0.766245 33.6328 0.936012 33.9062 1.10119C34.1797 1.26637 34.4668 1.43614 34.7676 1.61049C35.0684 1.78485 35.2461 1.89038 35.3008 1.92708C35.5924 2.11062 35.7383 2.35838 35.7383 2.67039ZM36.75 14.9762C36.75 17.5273 36.0299 19.8535 34.5898 21.955C33.1497 24.0564 31.2448 25.566 28.875 26.4836L36.5312 12.6637C36.6771 13.4896 36.75 14.2604 36.75 14.9762ZM49 18.5C49 19.1424 48.8177 19.7755 48.4531 20.3996C47.7422 21.5742 46.7487 22.9048 45.4727 24.3914C42.7383 27.5481 39.571 29.9983 35.9707 31.7418C32.3704 33.4854 28.5469 34.3571 24.5 34.3571L26.5234 30.7232C30.388 30.3929 33.9655 29.1357 37.2559 26.9516C40.5462 24.7676 43.2943 21.9504 45.5 18.5C43.4036 15.2148 40.8333 12.5169 37.7891 10.4062L39.5117 7.32292C41.2435 8.49752 42.9069 9.90154 44.502 11.535C46.097 13.1684 47.4141 14.8569 48.4531 16.6004C48.8177 17.2245 49 17.8576 49 18.5Z" fill="#A2B1B5"/>
</svg>
