<svg width="54" height="42" viewBox="0 0 54 42" fill="none" xmlns="http://www.w3.org/2000/svg">
<path d="M33.4655 2.50465C33.4699 2.5079 33.4777 2.51403 33.4884 2.52449C33.4889 2.52497 33.4894 2.52545 33.4899 2.52595L51.4754 20.5115C51.476 20.5121 51.4765 20.5126 51.4771 20.5132C51.4862 20.5228 51.4905 20.5305 51.4934 20.5376C51.4971 20.5469 51.5 20.5596 51.5 20.5747C51.5 20.5898 51.4971 20.6026 51.4934 20.6118C51.4905 20.619 51.4862 20.6267 51.4771 20.6363C51.4766 20.6368 51.476 20.6374 51.4754 20.638L33.484 38.6294C33.4734 38.64 33.4658 38.646 33.4618 38.6489L33.4579 38.6516C33.4515 38.652 33.4307 38.6521 33.4018 38.6402C33.3791 38.6309 33.3667 38.6206 33.3618 38.6158C33.3615 38.6146 33.3612 38.613 33.3609 38.6111C33.36 38.6049 33.3587 38.5933 33.3587 38.5756V28.2894V25.7894H30.8587H16.2865C16.2682 25.7894 16.2592 25.7862 16.2544 25.7842C16.248 25.7815 16.2409 25.777 16.2341 25.7703C16.2273 25.7635 16.2228 25.7563 16.2202 25.75C16.2181 25.7452 16.215 25.7361 16.215 25.7178V15.4316C16.215 15.4133 16.2181 15.4043 16.2202 15.3995C16.2228 15.3931 16.2273 15.386 16.2341 15.3792C16.2409 15.3724 16.248 15.3679 16.2544 15.3652C16.2592 15.3632 16.2682 15.3601 16.2865 15.3601H30.8587H33.3587V12.8601V2.57384C33.3587 2.55689 33.3599 2.54596 33.3608 2.54022C33.361 2.53873 33.3613 2.53747 33.3615 2.53644C33.3664 2.53161 33.3789 2.52104 33.4019 2.51155C33.4324 2.49899 33.4537 2.49975 33.4589 2.50027C33.46 2.50093 33.4622 2.50228 33.4655 2.50465ZM18.0724 36.7897V38.6472H10.2862C5.98808 38.6472 2.5 35.1591 2.5 30.861V10.2885C2.5 5.99036 5.98808 2.50228 10.2862 2.50228H18.0724V4.35976H10.2862C7.00899 4.35976 4.35748 7.01127 4.35748 10.2885V30.861C4.35748 34.1382 7.00899 36.7897 10.2862 36.7897H18.0724Z" fill="#A2B1B5" stroke="#629DD2" stroke-width="5"/>
</svg>
