<svg width="181" height="181" viewBox="0 0 181 181" fill="none" xmlns="http://www.w3.org/2000/svg">
<g clip-path="url(#clip0_350_6)">
<mask id="mask0_350_6" style="mask-type:luminance" maskUnits="userSpaceOnUse" x="0" y="0" width="181" height="181">
<path d="M181 0H0V181H181V0Z" fill="white"/>
</mask>
<g mask="url(#mask0_350_6)">
<path d="M90.5004 4.52539C137.95 4.52539 176.475 43.0504 176.475 90.5004C176.475 137.95 137.95 176.475 90.5004 176.475C43.0504 176.475 4.52539 137.95 4.52539 90.5004C4.52539 43.0504 43.0504 4.52539 90.5004 4.52539Z" stroke="white" stroke-width="9.5"/>
<path d="M90.5004 4.52539C137.95 4.52539 176.475 43.0508 176.475 90.5004C176.475 137.95 137.95 176.475 90.5004 176.475C43.0508 176.475 4.52539 137.95 4.52539 90.5004C4.52539 43.0508 43.0508 4.52539 90.5004 4.52539Z" fill="#E4E4E4"/>
<path d="M133.596 125.36C133.596 108.639 113.341 95.0644 88.3457 95.0644C63.3505 95.0644 43.0957 108.639 43.0957 125.36C43.0957 142.081 133.596 142.081 133.596 125.36ZM88.3457 34.4746C103.954 34.4746 116.627 46.8153 116.627 62.0146C116.627 77.214 103.954 89.5546 88.3457 89.5546C72.7373 89.5546 60.0645 77.214 60.0645 62.0146C60.0645 46.8153 72.7373 34.4746 88.3457 34.4746Z" fill="#A0A0A0"/>
</g>
</g>
<defs>
<clipPath id="clip0_350_6">
<rect width="181" height="181" fill="white"/>
</clipPath>
</defs>
</svg>
