<svg width="158" height="121" viewBox="0 0 158 121" fill="none" xmlns="http://www.w3.org/2000/svg">
<path d="M155.573 65.4285L102.985 118.016C98.2893 122.712 90.1507 119.425 90.1507 112.695V82.6448H47.5795C43.4163 82.6448 40.067 79.2955 40.067 75.1322V45.082C40.067 40.9188 43.4163 37.5695 47.5795 37.5695H90.1507V7.51922C90.1507 0.820518 98.258 -2.49753 102.985 2.19782L155.573 54.7857C158.484 57.7281 158.484 62.4861 155.573 65.4285ZM60.1005 116.451V103.93C60.1005 101.864 58.4101 100.174 56.3442 100.174H30.0502C24.5097 100.174 20.0335 95.6979 20.0335 90.1574V30.0569C20.0335 24.5164 24.5097 20.0401 30.0502 20.0401H56.3442C58.4101 20.0401 60.1005 18.3498 60.1005 16.2839V3.76294C60.1005 1.69698 58.4101 0.00665756 56.3442 0.00665756H30.0502C13.46 0.00665756 0 13.4667 0 30.0569V90.1574C0 106.748 13.46 120.208 30.0502 120.208H56.3442C58.4101 120.208 60.1005 118.517 60.1005 116.451Z" fill="#A2B1B5"/>
</svg>
