<svg width="103" height="103" viewBox="0 0 103 103" fill="none" xmlns="http://www.w3.org/2000/svg">
<path d="M101.399 38.8327C101.209 38.0114 100.859 37.2354 100.369 36.5491C99.879 35.8629 99.2584 35.2797 98.5428 34.833C97.8272 34.3862 97.0305 34.0846 96.1981 33.9454C95.3658 33.8062 94.5142 33.8321 93.6919 34.0217C92.8696 34.2112 92.0927 34.5607 91.4056 35.0501C90.7185 35.5395 90.1347 36.1593 89.6874 36.8741C89.2402 37.5889 88.9382 38.3847 88.7989 39.216C88.6595 40.0474 88.6854 40.898 88.8752 41.7193C91.2871 51.3768 89.9084 61.5901 85.0219 70.2647C74.4252 88.5466 50.6628 94.9612 32.3594 84.377C14.056 74.1135 7.63379 50.3791 18.2305 32.0973C28.8272 13.8154 52.5895 7.4007 70.8929 17.9849C71.6098 18.4061 72.4027 18.6822 73.2264 18.7973C74.0501 18.9124 74.8884 18.8644 75.6935 18.6559C76.4985 18.4474 77.2546 18.0826 77.9186 17.5822C78.5825 17.0819 79.1413 16.4558 79.5629 15.7398C79.9846 15.0238 80.261 14.2318 80.3763 13.4091C80.4915 12.5864 80.4434 11.749 80.2347 10.9449C80.0259 10.1408 79.6607 9.38556 79.1598 8.72241C78.6588 8.05926 78.032 7.50116 77.3152 7.07997C52.5895 -7.35309 21.4416 0.986008 6.99156 25.6826C2.73989 32.978 0.351072 41.2064 0.035842 49.6419C-0.279388 58.0774 1.48866 66.4608 5.18401 74.0525C8.87936 81.6442 14.3884 88.2108 21.2253 93.1732C28.0621 98.1355 36.0165 101.341 44.3869 102.507C52.7572 103.673 61.2862 102.763 69.2214 99.8586C77.1566 96.9539 84.2542 92.1433 89.888 85.851C95.5218 79.5588 99.5188 71.9785 101.526 63.7787C103.534 55.5789 103.49 47.0116 101.399 38.8327ZM31.075 45.8889C29.6272 44.9532 27.8666 44.6302 26.1804 44.9911C24.4942 45.352 23.0206 46.3672 22.0838 47.8133C21.147 49.2594 20.8237 51.0179 21.1851 52.7021C21.5464 54.3863 22.5627 55.8581 24.0105 56.7938L49.6995 72.8306C50.7597 73.4841 51.9862 73.8182 53.2317 73.7928C54.2249 73.772 55.2011 73.531 56.0897 73.0872C56.9782 72.6435 57.7569 72.008 58.3695 71.2269L92.0863 27.9277C94.3341 25.0411 93.6919 21.1923 90.8019 18.9471C87.9119 16.702 84.0585 17.3435 81.8107 20.2301L51.6262 58.7182L31.075 45.8889Z" fill="#629DD2"/>
</svg>
